<svg width="32" height="32" viewBox="0 0 32 32" fill="none" xmlns="http://www.w3.org/2000/svg">
<g id="users">
<path id="Vector (Stroke)" fill-rule="evenodd" clip-rule="evenodd" d="M1.95262 20.6193C3.20286 19.369 4.89856 18.6667 6.66667 18.6667H17.3333C19.1014 18.6667 20.7971 19.369 22.0474 20.6193C23.2976 21.8695 24 23.5652 24 25.3333V28C24 28.7364 23.403 29.3333 22.6667 29.3333C21.9303 29.3333 21.3333 28.7364 21.3333 28V25.3333C21.3333 24.2725 20.9119 23.255 20.1618 22.5049C19.4116 21.7548 18.3942 21.3333 17.3333 21.3333H6.66667C5.6058 21.3333 4.58839 21.7548 3.83824 22.5049C3.08809 23.255 2.66667 24.2725 2.66667 25.3333V28C2.66667 28.7364 2.06971 29.3333 1.33333 29.3333C0.596954 29.3333 0 28.7364 0 28V25.3333C0 23.5652 0.702379 21.8695 1.95262 20.6193Z" fill="white"/>
<path id="Vector (Stroke)_2" fill-rule="evenodd" clip-rule="evenodd" d="M12 5.33332C9.79087 5.33332 8.00001 7.12418 8.00001 9.33332C8.00001 11.5425 9.79087 13.3333 12 13.3333C14.2091 13.3333 16 11.5425 16 9.33332C16 7.12418 14.2091 5.33332 12 5.33332ZM5.33334 9.33332C5.33334 5.65142 8.31811 2.66666 12 2.66666C15.6819 2.66666 18.6667 5.65142 18.6667 9.33332C18.6667 13.0152 15.6819 16 12 16C8.31811 16 5.33334 13.0152 5.33334 9.33332Z" fill="white"/>
<path id="Vector (Stroke)_3" fill-rule="evenodd" clip-rule="evenodd" d="M25.3757 19.84C25.5598 19.127 26.287 18.6983 27 18.8824C28.4302 19.2516 29.6973 20.0854 30.6023 21.2529C31.5073 22.4203 31.9989 23.8552 32 25.3324L32 28C32 28.7364 31.403 29.3333 30.6667 29.3333C29.9303 29.3333 29.3333 28.7364 29.3333 28L29.3333 25.3343C29.3333 25.3342 29.3333 25.3345 29.3333 25.3343C29.3326 24.4482 29.0376 23.587 28.4947 22.8867C27.9517 22.1862 27.1915 21.6859 26.3333 21.4643C25.6203 21.2802 25.1916 20.553 25.3757 19.84Z" fill="white"/>
<path id="Vector (Stroke)_4" fill-rule="evenodd" clip-rule="evenodd" d="M20.0417 3.84263C20.2243 3.12926 20.9507 2.69903 21.6641 2.88168C23.0981 3.24885 24.3691 4.08285 25.2768 5.2522C26.1845 6.42154 26.6771 7.85973 26.6771 9.34001C26.6771 10.8203 26.1845 12.2585 25.2768 13.4278C24.3691 14.5972 23.0981 15.4312 21.6641 15.7983C20.9507 15.981 20.2243 15.5508 20.0417 14.8374C19.859 14.124 20.2893 13.3977 21.0026 13.215C21.863 12.9947 22.6257 12.4943 23.1703 11.7927C23.7149 11.0911 24.0105 10.2282 24.0105 9.34001C24.0105 8.45184 23.7149 7.58893 23.1703 6.88732C22.6257 6.18571 21.863 5.68531 21.0026 5.46501C20.2893 5.28236 19.859 4.55599 20.0417 3.84263Z" fill="white"/>
</g>
</svg>
