<svg width="32" height="32" viewBox="0 0 32 32" fill="none" xmlns="http://www.w3.org/2000/svg">
<g id="align-justify">
<path id="Vector (Stroke)" fill-rule="evenodd" clip-rule="evenodd" d="M2.66659 13.3333C2.66659 12.597 3.26354 12 3.99992 12H27.9999C28.7363 12 29.3333 12.597 29.3333 13.3333C29.3333 14.0697 28.7363 14.6667 27.9999 14.6667H3.99992C3.26354 14.6667 2.66659 14.0697 2.66659 13.3333Z" fill="white"/>
<path id="Vector (Stroke)_2" fill-rule="evenodd" clip-rule="evenodd" d="M2.66659 7.99999C2.66659 7.26361 3.26354 6.66666 3.99992 6.66666H27.9999C28.7363 6.66666 29.3333 7.26361 29.3333 7.99999C29.3333 8.73637 28.7363 9.33332 27.9999 9.33332H3.99992C3.26354 9.33332 2.66659 8.73637 2.66659 7.99999Z" fill="white"/>
<path id="Vector (Stroke)_3" fill-rule="evenodd" clip-rule="evenodd" d="M2.66659 18.6667C2.66659 17.9303 3.26354 17.3333 3.99992 17.3333H27.9999C28.7363 17.3333 29.3333 17.9303 29.3333 18.6667C29.3333 19.4031 28.7363 20 27.9999 20H3.99992C3.26354 20 2.66659 19.4031 2.66659 18.6667Z" fill="white"/>
<path id="Vector (Stroke)_4" fill-rule="evenodd" clip-rule="evenodd" d="M2.66659 24C2.66659 23.2636 3.26354 22.6667 3.99992 22.6667H27.9999C28.7363 22.6667 29.3333 23.2636 29.3333 24C29.3333 24.7364 28.7363 25.3333 27.9999 25.3333H3.99992C3.26354 25.3333 2.66659 24.7364 2.66659 24Z" fill="white"/>
</g>
</svg>
