<svg width="24" height="24" viewBox="0 0 24 24" fill="none" xmlns="http://www.w3.org/2000/svg">
<path fill-rule="evenodd" clip-rule="evenodd" d="M11 4C7.13399 4 3.99998 7.13401 3.99998 11C3.99998 14.866 7.13399 18 11 18C14.866 18 18 14.866 18 11C18 7.13401 14.866 4 11 4ZM1.99998 11C1.99998 6.02944 6.02942 2 11 2C15.9705 2 20 6.02944 20 11C20 15.9706 15.9705 20 11 20C6.02942 20 1.99998 15.9706 1.99998 11Z" fill="white"/>
<path fill-rule="evenodd" clip-rule="evenodd" d="M15.9429 15.9429C16.3334 15.5524 16.9666 15.5524 17.3571 15.9429L21.7071 20.2929C22.0976 20.6834 22.0976 21.3166 21.7071 21.7071C21.3166 22.0976 20.6834 22.0976 20.2929 21.7071L15.9429 17.3571C15.5523 16.9666 15.5523 16.3334 15.9429 15.9429Z" fill="white"/>
</svg>
